<?xml version="1.0" standalone="no"?>
<!DOCTYPE svg PUBLIC "-//W3C//DTD SVG 20010904//EN"
 "http://www.w3.org/TR/2001/REC-SVG-20010904/DTD/svg10.dtd">
<svg version="1.0" xmlns="http://www.w3.org/2000/svg"
 width="1686.000000pt" height="950.000000pt" viewBox="0 0 1686.000000 950.000000"
 preserveAspectRatio="xMidYMid meet">

<g transform="translate(0.000000,950.000000) scale(0.100000,-0.100000)"
fill="#000000" stroke="none">
<path d="M0 4750 l0 -4750 475 0 475 0 0 1355 0 1355 100 0 100 0 0 -1255 0
-1255 7055 0 7055 0 0 1255 0 1255 95 0 95 0 0 -1355 0 -1355 705 0 705 0 0
4750 0 4750 -705 0 -705 0 0 -1395 0 -1395 -95 0 -95 0 0 1305 0 1305 -7055 0
-7055 0 0 -1305 0 -1305 -100 0 -100 0 0 1395 0 1395 -475 0 -475 0 0 -4750z
m4655 760 c125 -239 273 -523 330 -630 56 -107 155 -296 220 -420 150 -288
211 -403 328 -625 52 -99 111 -213 131 -252 l36 -73 -108 0 -108 0 -86 163
c-95 180 -331 627 -413 782 -29 55 -111 210 -182 345 -71 135 -187 354 -258
488 -70 134 -131 240 -135 235 -7 -7 -116 -213 -372 -703 -33 -63 -82 -155
-108 -205 -26 -49 -76 -144 -110 -210 -35 -66 -77 -147 -95 -180 -17 -33 -75
-143 -128 -245 -53 -102 -129 -248 -170 -325 l-73 -140 -118 -3 -118 -3 30 53
c16 29 56 105 90 168 91 175 248 474 474 905 113 215 303 577 423 805 262 500
275 524 285 513 4 -4 110 -204 235 -443z m4032 -1806 c31 -59 74 -91 154 -115
42 -13 69 -26 69 -35 0 -12 -61 -14 -380 -14 -313 0 -380 2 -380 14 0 8 25 19
65 29 35 9 76 24 90 33 37 24 72 90 84 158 7 40 11 358 11 951 0 962 1 946
-52 1026 -27 40 -99 79 -146 79 -29 0 -33 3 -30 23 3 21 12 23 243 52 l240 31
5 -1096 5 -1095 22 -41z m771 2199 c67 -50 86 -135 46 -203 -39 -66 -136 -90
-213 -50 -99 50 -94 210 9 263 44 23 121 18 158 -10z m-3348 -693 l0 -220 215
0 215 0 0 -35 0 -35 -215 0 -215 0 0 -545 c0 -346 4 -562 11 -594 23 -110 109
-186 223 -198 83 -9 142 16 210 86 45 47 58 56 67 45 24 -29 -89 -141 -176
-173 -83 -31 -209 -44 -311 -31 -134 17 -218 61 -257 134 -22 41 -22 46 -25
659 l-3 617 -89 0 c-79 0 -90 2 -89 18 0 11 20 27 57 44 53 25 139 101 190
168 29 38 77 137 101 213 22 65 23 67 57 67 l34 0 0 -220z m1402 -215 c154
-32 294 -134 361 -262 34 -67 50 -122 63 -215 l6 -48 -501 0 -501 0 -6 -26
c-13 -49 3 -256 26 -344 53 -208 161 -351 320 -428 175 -85 353 -78 496 17 64
43 125 124 146 193 8 27 16 38 27 36 43 -9 -18 -162 -99 -251 -101 -110 -243
-159 -465 -159 -169 0 -254 17 -375 74 -191 92 -336 300 -370 534 -46 321 69
606 313 773 154 105 370 146 559 106z m2000 -622 c3 -698 -1 -656 65 -725 25
-26 55 -43 104 -58 41 -14 69 -28 69 -36 0 -12 -64 -14 -375 -14 -325 0 -375
2 -375 15 0 8 12 17 28 21 81 18 104 27 132 51 82 69 93 158 88 700 -5 433 -8
456 -64 516 -33 36 -96 67 -134 67 -27 0 -51 22 -38 35 5 5 426 62 470 64 l27
1 3 -637z m1293 617 c228 -58 374 -226 401 -459 l7 -61 -500 0 -500 0 -7 -37
c-10 -63 -7 -156 9 -249 53 -312 221 -508 480 -561 138 -28 287 7 391 93 30
24 56 60 84 117 44 86 66 104 64 50 -4 -86 -113 -241 -208 -297 -149 -87 -438
-107 -644 -45 -230 70 -401 262 -458 514 -23 102 -23 290 0 395 57 259 265
472 526 540 103 26 252 26 355 0z m1078 6 c6 -16 26 -152 30 -206 l2 -35 17
30 c32 59 117 134 191 169 85 40 154 56 245 56 92 0 140 -16 184 -60 33 -33
38 -44 38 -83 0 -86 -31 -117 -116 -117 -43 0 -50 4 -123 74 -107 102 -172
119 -258 66 -63 -38 -119 -158 -145 -310 -19 -108 -18 -788 0 -850 21 -67 74
-114 160 -140 45 -14 72 -27 72 -36 0 -12 -61 -14 -380 -14 -321 0 -380 2
-380 14 0 9 19 18 50 25 118 25 165 69 187 174 19 93 18 936 -1 1001 -28 91
-103 155 -183 156 -26 0 -33 4 -33 19 0 16 9 21 43 26 23 4 112 17 197 30 190
28 197 28 203 11z m1467 -16 c101 -35 123 -37 150 -10 29 29 48 25 54 -12 3
-18 8 -104 11 -190 7 -153 6 -158 -13 -158 -16 0 -22 9 -27 39 -20 119 -133
260 -240 300 -157 59 -306 -15 -334 -165 -11 -54 -4 -101 23 -151 36 -71 113
-124 316 -217 160 -73 213 -105 276 -166 92 -89 128 -191 122 -340 -3 -84 -8
-105 -35 -161 -41 -84 -111 -152 -198 -195 -141 -69 -300 -66 -479 8 -84 34
-113 35 -160 3 -20 -14 -41 -25 -46 -25 -6 0 -10 94 -10 240 0 192 3 240 13
240 8 0 21 -26 31 -57 57 -185 166 -337 282 -390 149 -69 327 -6 380 133 23
60 16 184 -14 239 -46 87 -92 124 -272 221 -284 152 -370 237 -400 391 -32
160 54 334 199 408 67 34 110 43 206 44 65 1 96 -5 165 -29z m-9070 -1159 c-5
-11 -10 -67 -10 -126 0 -99 2 -107 25 -130 l24 -25 -61 0 c-48 0 -59 3 -50 12
17 17 17 259 0 276 -9 9 -1 12 35 12 44 0 47 -1 37 -19z m325 -116 c38 -37 32
-45 -40 -45 -65 0 -65 0 -65 -29 0 -15 10 -41 21 -56 18 -22 28 -26 60 -23 42
4 44 -7 3 -15 -45 -8 -92 11 -110 45 -19 36 -13 91 12 119 22 25 38 24 24 0
-15 -30 -14 -31 40 -31 54 0 61 9 30 40 -11 11 -15 20 -10 20 6 0 22 -11 35
-25z m107 13 c-18 -18 -14 -46 7 -53 11 -3 31 -15 45 -26 29 -23 35 -69 12
-88 -11 -9 -12 -6 -9 13 4 21 -3 31 -41 57 -36 26 -46 39 -46 60 0 16 8 32 18
38 23 14 29 14 14 -1z m68 -13 c0 -8 -2 -15 -4 -15 -2 0 -6 7 -10 15 -3 8 -1
15 4 15 6 0 10 -7 10 -15z m-340 -135 c0 -28 -2 -30 -37 -29 -33 0 -35 2 -16
9 12 5 28 18 35 30 17 26 18 26 18 -10z m259 -12 c12 -15 11 -18 -3 -18 -10 0
-16 8 -16 22 0 12 1 19 3 17 1 -2 9 -12 16 -21z"/>
<path d="M7240 4961 c-121 -39 -233 -174 -275 -331 -8 -30 -15 -65 -15 -77 l0
-23 365 0 365 0 0 28 c0 48 -28 162 -53 215 -30 66 -98 136 -162 167 -53 26
-175 37 -225 21z"/>
<path d="M10492 4953 c-54 -19 -145 -102 -193 -175 -33 -52 -79 -186 -79 -231
0 -16 30 -17 365 -17 l365 0 0 33 c0 52 -28 165 -52 215 -35 71 -113 145 -181
170 -68 26 -161 28 -225 5z"/>
</g>
</svg>
